<?xml version="1.0" standalone="no"?>
<!DOCTYPE svg PUBLIC "-//W3C//DTD SVG 20010904//EN"
 "http://www.w3.org/TR/2001/REC-SVG-20010904/DTD/svg10.dtd">
<svg version="1.0" xmlns="http://www.w3.org/2000/svg"
 width="589.000000pt" height="589.000000pt" viewBox="0 0 589.000000 589.000000"
 preserveAspectRatio="xMidYMid meet">
<metadata>
Created by potrace 1.14, written by Peter Selinger 2001-2017
</metadata>
<g transform="translate(0.000000,589.000000) scale(0.100000,-0.100000)"
fill="#000000" stroke="none">
<path d="M2890 5460 c-7 -4 -19 -6 -27 -3 -7 3 -20 0 -28 -7 -12 -10 -15 -10
-15 1 0 9 -3 10 -8 4 -8 -13 -51 -13 -71 -1 -10 6 -12 5 -7 -2 4 -7 1 -12 -9
-12 -10 0 -14 5 -10 13 4 6 -1 3 -9 -7 -12 -15 -16 -16 -16 -5 -1 10 -3 9 -11
-3 -9 -17 -11 -17 -37 0 -14 9 -23 11 -19 5 5 -7 5 -13 0 -14 -4 0 -16 -2 -26
-4 -9 -2 -15 0 -13 4 3 4 -4 8 -15 8 -10 1 -19 -3 -19 -8 0 -6 5 -7 12 -3 7 4
8 3 4 -5 -6 -9 -11 -9 -22 0 -11 9 -14 8 -14 -2 0 -11 -2 -11 -10 1 -8 13 -10
13 -10 -2 0 -11 -5 -15 -15 -12 -8 4 -12 11 -9 18 3 6 -1 3 -9 -7 -11 -14 -16
-15 -20 -5 -4 11 -6 11 -6 0 -1 -7 -5 -10 -11 -7 -5 3 -10 1 -10 -6 0 -9 -3
-9 -14 0 -11 9 -16 9 -22 0 -5 -8 -3 -9 6 -4 9 5 11 4 6 -3 -5 -9 -13 -9 -28
-1 -17 9 -24 8 -33 -4 -8 -12 -15 -13 -22 -6 -8 8 -13 7 -18 -2 -6 -8 -4 -10
5 -4 8 5 11 4 6 -3 -4 -6 -13 -9 -21 -5 -9 3 -15 -1 -15 -8 0 -11 -3 -11 -10
1 -8 12 -10 12 -10 1 0 -8 -3 -11 -7 -8 -3 4 -12 2 -20 -4 -10 -9 -17 -8 -30
2 -11 10 -14 10 -9 2 4 -8 2 -13 -4 -13 -6 0 -9 -4 -6 -8 3 -5 -8 -8 -24 -7
-19 1 -30 -3 -30 -12 0 -7 -5 -13 -11 -13 -6 0 -8 9 -4 23 l6 22 -13 -23 c-11
-18 -16 -20 -27 -10 -11 10 -12 10 -7 1 4 -7 2 -13 -4 -13 -6 0 -9 -4 -6 -8 3
-5 -10 -8 -29 -7 -27 0 -32 -2 -23 -13 9 -10 8 -12 -3 -10 -8 2 -17 8 -21 13
-4 6 -8 1 -8 -10 0 -17 -2 -17 -10 -5 -8 13 -10 12 -10 -4 0 -13 -5 -17 -20
-13 -11 3 -23 0 -27 -5 -4 -7 -1 -8 7 -3 8 5 11 4 6 -3 -4 -6 -14 -8 -23 -5
-12 5 -14 3 -8 -8 7 -12 6 -12 -7 -1 -13 10 -18 10 -24 1 -5 -8 -3 -9 6 -4 9
5 11 4 6 -4 -4 -7 -13 -10 -19 -8 -7 2 -18 -3 -25 -12 -12 -14 -13 -14 -8 2 8
26 -1 21 -18 -10 -9 -16 -16 -21 -16 -13 -1 13 -2 13 -13 -1 -7 -9 -20 -15
-29 -13 -10 1 -21 -3 -25 -8 -3 -7 -1 -8 5 -4 7 4 12 3 12 -2 0 -15 -28 -22
-34 -9 -2 7 -5 5 -5 -4 -1 -9 -8 -20 -17 -23 -15 -6 -15 -4 -3 10 13 16 12 16
-8 3 -12 -7 -20 -15 -18 -18 3 -2 0 -10 -6 -18 -9 -10 -15 -10 -25 -2 -9 8
-17 4 -29 -15 -10 -14 -24 -26 -31 -26 -8 0 -17 -7 -21 -16 -3 -10 -13 -14
-25 -11 -14 4 -18 1 -14 -8 5 -14 -20 -29 -35 -20 -5 4 -6 -2 -2 -11 5 -14 2
-16 -15 -12 -16 5 -20 2 -17 -14 4 -17 2 -18 -13 -7 -9 7 -14 9 -9 4 9 -10
-21 -45 -39 -45 -7 0 -19 -9 -27 -20 -8 -11 -17 -17 -22 -12 -4 4 -5 -1 -2
-11 6 -15 4 -16 -13 -7 -15 8 -18 8 -14 -3 3 -9 -3 -17 -15 -20 -14 -3 -21
-13 -21 -29 0 -17 -3 -19 -9 -9 -6 9 -11 10 -15 2 -4 -6 -4 -11 0 -11 4 0 -3
-11 -16 -25 -12 -13 -28 -22 -33 -18 -7 4 -8 -1 -3 -12 6 -16 4 -16 -11 -4
-11 9 -14 10 -9 1 4 -7 1 -15 -8 -18 -9 -3 -13 -10 -10 -15 3 -5 -1 -9 -8 -9
-7 0 -22 -8 -33 -16 -19 -16 -19 -16 5 -10 l25 7 -25 -15 c-14 -8 -32 -26 -39
-40 -8 -14 -18 -23 -23 -20 -4 3 -8 0 -8 -5 0 -6 -6 -10 -12 -9 -8 2 -12 -5
-10 -16 2 -12 -1 -16 -9 -10 -9 5 -11 1 -7 -14 4 -15 2 -19 -8 -15 -8 3 -17
-5 -23 -20 -6 -14 -18 -30 -28 -36 -14 -8 -15 -11 -3 -11 9 -1 6 -5 -7 -10
-14 -6 -21 -15 -17 -24 4 -11 0 -14 -15 -11 -19 3 -20 1 -10 -17 8 -15 8 -19
0 -14 -6 4 -15 -4 -21 -19 -6 -16 -14 -23 -22 -19 -6 4 -8 3 -4 -4 3 -6 2 -13
-4 -17 -6 -4 -7 -11 -4 -17 4 -6 2 -8 -4 -4 -6 3 -13 2 -17 -4 -3 -5 -1 -10 5
-10 6 0 8 -5 5 -10 -4 -6 -10 -8 -15 -5 -11 7 -22 -24 -13 -37 3 -6 1 -8 -5
-4 -6 3 -13 2 -17 -4 -3 -5 0 -10 7 -11 7 0 4 -4 -7 -8 -11 -5 -21 -13 -21
-20 -1 -6 -2 -16 -3 -22 0 -5 -5 -7 -11 -4 -6 3 -7 -1 -4 -9 3 -9 1 -16 -5
-16 -6 0 -8 -6 -5 -14 3 -8 0 -17 -7 -22 -8 -5 -10 -3 -4 6 5 9 4 11 -4 6 -9
-6 -9 -11 1 -24 11 -13 11 -14 -1 -7 -11 6 -13 4 -7 -10 5 -15 4 -16 -8 -6
-13 11 -15 9 -11 -8 2 -11 -1 -23 -6 -26 -5 -4 -6 -11 -3 -17 5 -7 2 -9 -8 -6
-8 4 -15 0 -15 -8 0 -7 3 -11 7 -9 4 2 7 -2 7 -10 0 -8 -4 -12 -9 -9 -4 3 -8
0 -8 -6 0 -6 -4 -8 -10 -5 -6 4 -7 -1 -3 -11 5 -13 3 -15 -8 -9 -12 8 -12 6 0
-8 12 -15 11 -17 -5 -17 -16 0 -17 -2 -4 -10 12 -8 12 -10 1 -10 -11 0 -11 -3
-1 -15 11 -13 10 -14 -5 -9 -12 5 -16 4 -11 -4 3 -6 2 -13 -4 -17 -6 -4 -8
-11 -5 -16 4 -5 2 -9 -4 -9 -5 0 -8 -9 -6 -21 3 -16 0 -19 -12 -15 -13 5 -14
4 -3 -9 7 -9 8 -15 2 -15 -6 0 -9 -11 -7 -25 1 -18 -1 -22 -9 -16 -8 7 -11 2
-10 -17 1 -34 -6 -53 -17 -46 -5 3 -6 -3 -2 -12 5 -13 3 -15 -8 -9 -11 7 -11
5 1 -10 12 -14 12 -19 2 -23 -10 -3 -10 -7 -1 -18 10 -12 9 -13 -6 -8 -14 6
-16 3 -11 -14 4 -11 2 -23 -3 -26 -5 -4 -8 -15 -6 -26 2 -11 -3 -27 -11 -35
-9 -8 -11 -15 -6 -15 6 0 12 -7 15 -14 4 -11 1 -13 -11 -9 -14 6 -15 4 -4 -9
10 -13 10 -18 1 -24 -8 -5 -9 -3 -4 6 5 9 4 11 -3 6 -9 -5 -9 -13 -2 -27 8
-14 7 -19 -1 -19 -7 0 -9 -3 -6 -7 4 -3 2 -13 -5 -20 -9 -11 -9 -17 3 -24 12
-8 12 -10 0 -18 -7 -5 -10 -14 -7 -20 4 -6 2 -11 -5 -11 -7 0 -4 -6 7 -14 17
-13 17 -15 2 -21 -10 -4 -14 -13 -11 -22 3 -8 0 -19 -8 -24 -12 -7 -12 -9 1
-9 13 0 13 -1 0 -10 -10 -6 -11 -10 -2 -10 6 0 12 -5 12 -11 0 -5 -4 -8 -8 -5
-4 2 -8 -4 -8 -14 0 -10 3 -17 6 -15 4 2 7 -3 7 -11 0 -9 -6 -13 -15 -9 -12 4
-12 3 -3 -9 9 -11 9 -15 0 -18 -8 -3 -6 -9 5 -21 16 -16 16 -17 -1 -17 -10 0
-14 -4 -8 -8 16 -12 12 -106 -5 -114 -13 -6 -12 -7 1 -7 9 -1 20 -8 23 -17 5
-13 3 -14 -7 -6 -10 9 -12 4 -9 -23 2 -19 9 -35 14 -35 5 0 2 -7 -7 -16 -13
-13 -13 -19 -3 -32 15 -17 19 -70 6 -78 -4 -3 -6 -10 -2 -15 3 -5 9 -7 13 -5
4 3 7 -6 7 -20 0 -13 -5 -24 -10 -24 -6 0 -4 -5 4 -10 13 -9 13 -10 0 -11 -10
0 -8 -3 5 -9 11 -5 14 -9 8 -9 -14 -1 -18 -31 -5 -31 4 0 8 -19 9 -42 1 -22 8
-45 15 -49 10 -7 10 -9 1 -9 -7 0 -13 -5 -13 -11 0 -5 5 -7 11 -3 7 4 7 -1 -1
-16 -10 -19 -10 -22 2 -18 10 4 13 -3 13 -28 -1 -19 3 -34 8 -34 5 0 4 -6 -2
-14 -9 -10 -8 -15 4 -19 8 -4 12 -13 9 -22 -4 -9 -1 -15 7 -15 11 0 11 -3 -1
-10 -10 -6 -11 -10 -2 -10 7 0 12 -13 12 -30 0 -16 5 -30 10 -30 6 0 10 -11
10 -25 0 -14 6 -25 13 -25 8 0 7 -4 -3 -10 -10 -6 -11 -10 -2 -10 6 0 12 -11
12 -25 0 -14 5 -25 10 -25 6 0 10 -12 10 -26 0 -14 4 -23 8 -20 5 3 9 -1 10
-9 1 -8 3 -22 4 -30 1 -8 6 -15 11 -15 5 0 3 -8 -4 -17 -8 -9 -9 -14 -3 -10 7
4 18 -1 25 -10 10 -12 10 -14 2 -9 -18 10 -16 0 4 -23 9 -11 20 -18 23 -16 4
2 7 -2 7 -10 0 -8 -4 -12 -9 -9 -4 3 -8 0 -8 -5 0 -6 10 -11 23 -11 16 0 18
-3 8 -9 -11 -7 -9 -13 10 -32 15 -15 17 -21 6 -16 -23 9 -21 2 9 -28 14 -14
23 -29 19 -34 -3 -5 -1 -12 5 -16 5 -3 10 -15 10 -26 0 -10 5 -19 10 -19 6 0
10 -7 10 -16 0 -8 5 -12 10 -9 6 3 10 -3 10 -14 0 -11 10 -27 22 -35 15 -11
18 -16 8 -16 -13 0 -13 -2 -1 -9 7 -5 11 -14 7 -19 -4 -7 1 -9 13 -7 14 2 18
-1 14 -11 -3 -7 2 -16 10 -20 9 -3 13 -12 10 -21 -4 -11 -2 -14 5 -9 11 7 17
-6 13 -27 -1 -5 3 -6 8 -3 5 3 12 -5 15 -19 4 -14 13 -25 22 -25 8 0 13 -4 10
-9 -3 -5 1 -11 9 -15 8 -3 15 -12 15 -21 0 -8 5 -15 11 -15 5 0 7 5 3 12 -4 7
-3 8 5 4 6 -4 9 -11 6 -16 -8 -13 6 -41 18 -33 6 4 8 0 4 -10 -4 -10 -2 -16 6
-14 7 1 11 -4 9 -12 -3 -12 0 -12 12 -2 13 11 15 10 12 -6 -2 -10 3 -25 12
-33 14 -13 15 -12 9 3 -4 11 -3 16 3 12 6 -3 10 -13 10 -21 0 -18 25 -46 34
-37 3 4 6 1 6 -6 0 -16 25 -41 40 -41 6 0 9 -4 5 -9 -3 -5 4 -12 15 -16 11 -3
20 -11 20 -16 0 -14 46 -59 60 -59 6 0 8 -4 5 -10 -6 -9 8 -15 29 -11 5 1 6
-5 3 -13 -4 -9 -1 -18 5 -22 7 -4 8 -3 4 4 -10 16 2 15 19 -2 8 -7 11 -17 7
-21 -4 -5 1 -5 11 -2 11 4 17 1 17 -8 0 -9 9 -15 23 -15 18 0 19 -2 7 -10 -13
-8 -12 -10 3 -10 11 0 15 -4 11 -12 -4 -7 -3 -8 5 -4 7 5 24 -4 42 -23 27 -28
40 -36 61 -32 5 0 7 -2 7 -7 -1 -4 -1 -14 1 -22 1 -11 4 -9 10 5 7 17 9 17 9
3 1 -10 7 -17 14 -15 6 1 11 -4 9 -11 -1 -8 2 -11 8 -7 5 3 10 1 10 -6 0 -9 3
-9 14 0 12 10 13 8 8 -11 -5 -19 -3 -21 9 -11 12 10 17 8 28 -8 7 -12 18 -18
26 -16 16 7 48 -26 38 -38 -5 -5 1 -3 11 5 13 10 17 10 12 3 -6 -11 -1 -15 20
-12 3 0 14 -9 24 -21 13 -15 19 -17 23 -8 4 8 6 7 6 -4 1 -11 6 -15 15 -12 8
3 17 1 21 -5 3 -6 15 -11 26 -11 10 0 19 -4 19 -10 0 -5 9 -10 20 -10 11 0 20
-4 20 -10 0 -5 9 -10 20 -10 11 0 20 -6 20 -12 0 -10 2 -10 8 -2 5 9 11 8 20
-2 10 -10 10 -14 1 -14 -7 0 -9 -3 -6 -6 4 -4 13 -1 22 6 10 8 15 9 15 1 0 -6
6 -10 13 -8 6 1 11 -4 9 -12 -3 -12 0 -12 11 -2 12 9 16 9 20 -1 4 -10 8 -10
17 2 10 12 11 11 7 -8 -5 -19 -3 -21 9 -11 13 11 18 6 15 -14 -1 -5 3 -6 9 -2
6 3 8 10 6 14 -3 4 1 8 9 8 8 0 12 -4 10 -8 -3 -3 3 -13 12 -20 12 -10 14 -10
9 -1 -4 6 -2 12 4 12 6 0 13 -6 16 -14 3 -7 16 -12 30 -10 13 1 24 -1 24 -5 0
-4 12 -8 27 -9 15 -1 30 -8 35 -15 4 -6 8 -7 8 -2 0 17 40 12 40 -5 0 -13 1
-13 10 0 7 11 10 11 10 2 0 -7 4 -10 10 -7 6 3 10 2 10 -2 0 -8 8 -10 65 -14
13 -1 22 -6 19 -10 -7 -12 19 -7 28 5 4 6 12 5 21 -3 18 -15 60 -23 52 -11 -3
6 1 7 9 4 9 -3 13 -10 10 -15 -3 -5 2 -6 10 -3 9 3 13 11 10 18 -3 6 1 3 9 -6
11 -14 16 -15 26 -5 9 9 14 9 21 -3 7 -12 14 -12 27 -4 19 11 46 8 39 -5 -3
-4 1 -8 9 -8 8 0 11 5 8 10 -3 5 0 7 8 5 8 -3 13 -11 12 -17 -2 -6 2 -11 7
-11 6 0 10 6 10 13 0 7 9 13 20 13 11 0 20 -3 20 -7 0 -3 12 -4 26 -1 21 4 25
2 20 -9 -4 -8 0 -5 8 5 13 17 18 18 29 6 10 -10 9 -11 -2 -5 -9 5 -12 4 -8 -3
4 -5 16 -8 27 -5 11 3 17 9 14 14 -3 5 2 6 10 3 9 -3 13 -11 9 -18 -3 -6 3 -3
14 7 16 14 23 15 29 6 5 -8 3 -10 -6 -4 -8 5 -11 4 -6 -3 4 -6 13 -9 21 -6 8
4 13 9 11 13 -6 10 42 6 51 -4 5 -4 2 -5 -6 0 -10 6 -12 4 -6 -5 6 -10 11 -9
21 5 11 14 16 16 28 6 8 -7 17 -8 20 -3 3 5 18 7 34 4 16 -2 33 1 36 7 4 6 12
11 17 11 6 0 7 -6 3 -13 -6 -9 -4 -9 7 -1 8 6 29 14 46 16 28 4 31 2 20 -11
-10 -14 -10 -14 4 -4 9 7 19 10 23 6 4 -4 4 1 0 12 -7 18 -6 18 9 6 13 -10 17
-10 17 -1 0 10 3 10 15 0 12 -10 16 -9 20 2 4 10 16 14 36 12 22 -3 28 0 23 9
-5 9 -4 9 6 0 14 -13 43 -6 34 9 -4 6 3 5 15 -1 18 -10 21 -9 22 6 0 11 2 13
6 5 4 -10 9 -9 19 5 13 17 14 17 7 -2 -6 -18 -5 -19 13 -5 10 8 30 21 44 29
l25 14 -20 -24 c-14 -16 -15 -20 -3 -10 9 7 23 9 29 5 8 -4 9 -3 5 4 -4 7 -1
12 9 12 10 0 13 5 9 13 -5 8 -2 8 9 -2 13 -10 17 -10 17 -1 0 7 7 10 15 6 10
-3 15 1 15 12 0 15 2 15 11 2 8 -11 12 -12 16 -2 2 6 10 9 16 5 7 -4 8 0 3 12
-5 13 -3 15 6 8 18 -13 44 -10 41 5 -4 16 9 15 26 0 11 -11 12 -10 6 1 -6 11
-4 13 9 8 13 -5 17 -3 13 7 -4 10 0 14 13 11 10 -2 21 3 24 11 3 8 11 14 18
13 10 0 10 -2 1 -6 -7 -2 -13 -9 -13 -15 0 -6 6 -6 15 2 8 6 20 8 27 4 8 -5 8
-1 -2 11 -9 11 -10 16 -2 11 6 -4 12 -3 12 2 0 6 8 9 18 8 10 0 16 5 14 13 -2
11 0 12 11 2 12 -9 16 -8 21 4 3 9 11 15 18 14 24 -3 41 1 35 8 -8 8 42 35 53
28 4 -3 10 4 13 14 4 15 11 18 27 14 17 -5 21 -3 15 7 -5 8 -3 11 5 8 8 -2 22
4 32 14 10 10 24 16 30 12 7 -5 8 -3 3 6 -6 10 -4 12 8 7 10 -4 23 3 36 19 13
17 21 21 25 12 4 -7 4 -3 2 9 -4 20 -2 21 16 12 12 -6 18 -7 14 -1 -3 5 4 12
15 15 14 4 18 10 13 18 -5 9 -2 10 9 6 9 -3 18 1 21 10 4 9 9 13 12 10 11 -11
46 31 39 45 -6 10 -5 10 5 1 16 -14 63 24 55 45 -4 12 -3 12 9 3 12 -10 16 -8
21 8 4 12 12 18 21 14 9 -3 14 1 14 12 0 11 5 15 14 12 10 -4 13 -1 10 8 -3 8
3 16 16 20 12 4 19 10 16 13 -4 3 6 12 21 19 16 7 19 11 9 8 -16 -5 -17 -3 -6
9 6 9 17 14 23 13 7 -1 11 6 11 16 -2 14 1 15 12 6 12 -10 13 -8 7 6 -5 15 -3
17 11 12 9 -4 15 -3 12 2 -3 5 1 12 10 15 10 4 14 12 10 23 -4 10 -4 14 0 11
11 -12 46 12 40 28 -3 7 -2 13 2 11 4 -1 18 9 31 22 19 19 21 25 10 33 -10 6
-7 7 9 3 18 -5 22 -2 22 14 0 12 6 21 16 21 8 0 13 4 10 9 -3 5 1 12 10 15 9
4 14 13 10 21 -3 8 -2 14 2 14 22 -4 30 3 27 22 -3 12 -2 19 1 16 3 -3 15 4
26 15 17 17 18 22 7 30 -11 8 -10 9 3 5 9 -3 22 1 28 9 7 8 9 14 4 14 -5 0 -3
4 5 9 8 5 16 16 17 25 1 8 12 29 23 45 12 16 21 34 21 41 0 7 7 10 14 7 10 -4
13 -1 10 7 -3 7 2 20 10 28 11 12 12 18 3 27 -9 10 -9 12 3 9 8 -2 14 3 13 10
-2 6 2 12 8 12 6 0 9 7 5 15 -3 9 0 15 8 15 8 0 17 7 20 16 4 10 2 13 -7 9 -6
-4 -1 3 13 15 14 12 20 19 13 16 -7 -4 -9 1 -6 14 3 11 13 20 22 20 14 0 14 2
1 10 -13 9 -13 12 2 24 10 7 14 17 10 21 -4 5 2 5 13 2 20 -7 20 -7 1 8 -18
14 -18 15 -2 15 9 0 14 5 11 10 -3 6 0 10 7 10 9 0 9 3 -2 10 -13 8 -13 10 1
10 11 0 15 8 13 26 -2 18 2 24 11 20 9 -3 12 1 10 15 -2 10 2 19 8 19 7 0 6 4
-3 10 -12 8 -12 10 3 16 15 5 15 9 5 22 -8 10 -8 13 -2 9 7 -4 14 0 18 8 3 8
0 15 -7 15 -8 0 -7 4 3 9 8 6 18 7 24 4 5 -4 6 -1 0 8 -13 21 -14 40 -1 32 6
-4 8 0 4 11 -4 10 -1 19 7 22 7 3 12 16 10 30 -1 13 2 24 7 24 5 0 4 11 -1 25
-5 14 -6 24 -2 24 20 -3 23 3 11 18 -12 14 -12 16 0 8 11 -6 13 -3 9 13 -5 16
-2 22 10 22 13 0 12 3 -4 15 -13 11 -14 14 -4 13 10 -2 14 4 12 16 -2 12 1 16
10 10 7 -4 4 2 -6 14 -11 12 -16 25 -13 29 4 3 7 1 7 -5 0 -7 4 -12 9 -12 5 0
7 10 3 22 -4 16 -2 19 9 13 12 -8 12 -6 0 8 -9 12 -10 17 -2 17 7 0 9 5 5 12
-12 19 -12 48 -1 55 6 4 7 1 2 -7 -6 -9 -4 -11 4 -5 9 5 10 10 2 18 -7 7 -5
14 7 24 16 12 15 13 -3 7 -18 -5 -19 -4 -3 8 15 13 15 15 0 26 -9 7 -12 10 -6
7 7 -2 14 4 17 15 3 13 1 18 -6 13 -7 -4 -6 1 2 10 10 13 10 17 1 17 -9 0 -10
3 -1 13 6 8 8 17 4 21 -11 10 -12 37 -2 30 5 -3 6 -10 3 -16 -4 -7 -2 -8 4 -4
8 5 9 13 3 25 -6 10 -6 23 -1 31 6 9 5 17 -3 22 -7 4 -7 8 -2 8 14 0 7 141 -8
159 -10 12 -9 14 4 9 9 -4 16 -1 16 8 0 7 -5 10 -10 7 -6 -4 -8 0 -4 10 3 9 2
19 -3 22 -7 4 -6 13 0 26 6 10 7 19 2 19 -4 0 -8 9 -8 19 0 11 4 17 8 15 4 -3
8 0 8 5 0 6 -4 11 -9 11 -5 0 -11 11 -13 25 -3 13 -2 22 2 20 12 -7 4 75 -8
87 -16 16 -15 38 1 38 6 1 1 7 -13 15 -21 12 -22 14 -6 15 15 0 16 3 6 15 -6
8 -9 19 -5 25 3 5 1 10 -6 10 -8 0 -8 4 1 15 10 12 9 15 -6 16 -12 0 -14 3 -6
6 10 4 9 10 -4 30 -11 18 -12 23 -3 18 11 -6 12 -5 2 6 -7 7 -13 17 -13 22 0
4 6 5 13 2 6 -4 3 1 -7 9 -15 12 -16 16 -5 16 10 1 9 3 -4 11 -14 8 -15 14 -6
31 8 15 8 19 0 14 -7 -4 -11 1 -11 13 0 12 -6 21 -12 21 -9 0 -8 4 2 10 10 6
11 10 3 10 -7 0 -13 9 -13 21 0 13 -4 18 -12 13 -9 -5 -9 -2 1 9 12 15 9 21
-10 19 -3 -1 -4 11 -1 25 4 20 2 24 -9 18 -11 -7 -11 -5 1 10 9 11 10 16 3 11
-12 -6 -18 5 -14 27 0 4 -5 7 -11 7 -9 0 -8 4 2 10 10 6 11 10 3 10 -7 0 -13
7 -13 15 0 8 -6 15 -12 15 -9 0 -8 4 2 10 10 6 11 10 3 10 -7 0 -13 7 -13 15
0 8 -4 15 -10 15 -5 0 -10 6 -10 14 0 22 -26 66 -35 58 -4 -4 -2 4 5 17 8 15
8 21 1 17 -6 -4 -11 -2 -11 4 0 6 -5 8 -12 4 -8 -5 -7 0 2 11 9 11 10 16 3 11
-8 -4 -13 -1 -13 8 0 9 -6 16 -12 16 -9 0 -8 4 2 10 13 8 13 10 -2 10 -12 0
-15 5 -11 17 4 10 2 14 -4 10 -6 -4 -14 0 -17 9 -4 10 -2 13 7 8 8 -5 8 -2 -2
9 -7 9 -17 15 -21 12 -5 -3 -6 4 -3 15 3 11 0 20 -6 20 -6 0 -11 9 -11 20 0
14 -7 20 -22 20 -19 0 -20 2 -8 10 13 8 12 10 -4 10 -11 0 -17 3 -13 6 9 9
-35 54 -46 47 -6 -3 -7 -1 -3 5 8 13 -29 54 -40 44 -4 -4 -4 -2 0 5 3 6 2 14
-4 18 -6 4 -7 11 -4 17 5 7 2 9 -8 5 -12 -4 -15 0 -11 16 4 17 2 19 -5 8 -8
-11 -11 -9 -14 10 -2 13 -9 23 -16 21 -8 -1 -11 2 -7 8 3 5 -1 20 -9 32 -9 12
-16 18 -16 12 0 -5 6 -16 13 -23 10 -11 8 -11 -9 -1 -14 8 -20 20 -16 32 3 13
-1 18 -14 18 -13 0 -15 3 -7 8 8 5 9 13 3 22 -6 8 -10 11 -10 5 0 -5 -8 5 -16
23 -11 21 -24 32 -38 32 -17 0 -18 2 -6 10 13 8 11 11 -7 16 -13 4 -23 11 -23
16 0 5 -4 6 -10 3 -6 -3 -7 1 -4 9 3 9 1 16 -6 16 -6 0 -9 4 -6 9 3 5 -1 12
-10 15 -10 4 -13 2 -8 -6 4 -7 3 -8 -4 -4 -7 4 -12 17 -13 29 0 12 -3 16 -6
10 -3 -10 -8 -10 -19 1 -8 8 -14 19 -14 25 0 5 -9 13 -20 16 -11 3 -20 11 -20
16 0 6 -5 7 -10 4 -6 -4 -10 -3 -9 2 4 22 -2 32 -17 26 -10 -4 -17 2 -21 17
-4 16 -8 18 -14 8 -7 -10 -9 -9 -9 5 0 10 -4 15 -10 12 -5 -3 -10 2 -10 11 0
10 -3 15 -6 11 -4 -3 -14 2 -23 11 -9 10 -11 11 -6 3 6 -10 0 -8 -16 4 -15 11
-25 23 -22 28 2 4 -3 8 -11 8 -35 3 -41 5 -38 17 1 7 -16 19 -38 28 -22 9 -40
22 -40 29 0 8 -5 17 -12 21 -7 4 -8 3 -4 -5 6 -8 1 -8 -18 0 -14 7 -23 15 -21
19 4 7 -32 22 -58 24 -5 1 -15 10 -23 20 -8 11 -14 16 -14 11 0 -5 -7 0 -16
11 -8 10 -13 13 -9 7 4 -9 1 -11 -9 -7 -9 3 -14 9 -11 13 2 4 -10 16 -27 26
-17 10 -28 13 -24 6 12 -18 -9 -13 -34 9 -13 12 -30 18 -37 16 -7 -3 -15 0
-19 6 -5 7 -2 8 6 3 9 -5 11 -4 6 4 -6 9 -11 9 -21 1 -10 -8 -15 -8 -21 1 -5
8 -3 9 6 4 9 -5 11 -4 6 3 -4 7 -18 12 -30 12 -26 0 -50 22 -38 35 4 5 1 5 -6
1 -7 -4 -10 -12 -7 -17 3 -5 -1 -6 -9 -3 -9 3 -13 11 -9 17 4 6 0 8 -10 4 -9
-3 -23 0 -30 8 -11 10 -17 11 -25 3 -8 -8 -13 -7 -17 3 -3 10 -17 14 -35 13
-17 -1 -27 2 -24 7 3 5 -6 9 -20 9 -14 0 -26 5 -26 11 0 5 5 7 12 3 7 -4 8 -3
4 5 -6 9 -11 9 -22 0 -11 -9 -14 -9 -14 0 0 7 -5 9 -10 6 -6 -4 -18 -1 -27 7
-14 11 -16 11 -9 -1 6 -9 5 -12 -5 -9 -8 3 -13 10 -12 14 1 5 -16 9 -37 8 -23
0 -37 3 -33 9 3 5 0 7 -8 5 -8 -3 -23 2 -34 11 -19 15 -19 15 -5 -4 15 -19 15
-19 -14 -1 -16 10 -26 14 -23 9 3 -5 -3 -9 -13 -9 -12 0 -16 4 -10 11 6 7 2
11 -10 11 -10 0 -16 -4 -14 -8 3 -4 0 -8 -5 -8 -6 0 -11 4 -11 10 0 5 -7 6
-17 3 -12 -5 -14 -3 -8 8 8 12 6 12 -8 0 -13 -10 -17 -10 -17 -1 0 10 -3 10
-14 1 -10 -8 -15 -8 -18 -1 -4 13 -78 20 -78 7 0 -5 -7 -3 -17 4 -19 16 -50
19 -75 7 -10 -5 -18 -3 -21 5 -4 9 -6 9 -6 0 -1 -7 -6 -13 -12 -13 -5 0 -7 6
-3 13 5 7 0 6 -11 -3 -17 -14 -18 -13 -12 4 6 15 5 17 -6 8 -10 -9 -17 -8 -25
0 -9 9 -12 9 -12 -1 0 -11 -3 -11 -17 0 -15 12 -16 12 -10 -6 7 -19 6 -19 -7
-2 -13 16 -15 16 -30 2 -9 -9 -16 -12 -16 -7 0 14 -25 21 -40 12z m-525 -80
c3 -5 1 -10 -4 -10 -6 0 -11 5 -11 10 0 6 2 10 4 10 3 0 8 -4 11 -10z m2440
-750 c3 -5 1 -10 -4 -10 -6 0 -11 5 -11 10 0 6 2 10 4 10 3 0 8 -4 11 -10z
m-495 -3814 c0 -3 -4 -8 -10 -11 -5 -3 -10 -1 -10 4 0 6 5 11 10 11 6 0 10 -2
10 -4z"/>
<path d="M2656 5447 c3 -10 9 -15 12 -12 3 3 0 11 -7 18 -10 9 -11 8 -5 -6z"/>
<path d="M1380 4920 c-9 -6 -10 -10 -3 -10 6 0 15 5 18 10 8 12 4 12 -15 0z"/>
<path d="M1202 4764 c-7 -8 -8 -14 -3 -14 10 0 25 19 20 25 -2 1 -10 -3 -17
-11z"/>
<path d="M1676 752 c-3 -5 1 -9 9 -9 8 0 12 4 9 9 -3 4 -7 8 -9 8 -2 0 -6 -4
-9 -8z"/>
</g>
</svg>
